<svg xmlns="http://www.w3.org/2000/svg" viewBox="0 0 25.397 25.397"><defs><style>.a{fill:#5f5f5f;}</style></defs><path class="a" d="M23.74,6.343c-.076-.127-.127-.228-.2-.355a12.6,12.6,0,0,0-3.308-3.552c-.331-.228-.662-.457-1.018-.685-.127-.076-.254-.152-.356-.2A13.039,13.039,0,0,0,12.773,0h-.127A12.392,12.392,0,0,0,6.234,1.776,12.789,12.789,0,0,0,1.7,6.343a12.652,12.652,0,0,0,0,12.686l.178.33h0a12.815,12.815,0,0,0,3.384,3.628c.305.228.636.431.967.634.254.152.483.279.738.406a12.9,12.9,0,0,0,5.674,1.37h.1a12.516,12.516,0,0,0,3.74-.584,11.46,11.46,0,0,0,2.672-1.192,14,14,0,0,0,1.272-.863,12.689,12.689,0,0,0,3.079-3.4h0l.178-.33c.076-.127.127-.228.2-.355a12.9,12.9,0,0,0,1.45-4.719,10.157,10.157,0,0,0,.051-1.243A12.1,12.1,0,0,0,23.74,6.343Zm.407,5.709H20.585a13.684,13.684,0,0,0-1.043-4.745H22.8A11.348,11.348,0,0,1,24.147,12.052ZM13.359,1.725a13.636,13.636,0,0,1,4.148,4.288H13.359ZM12.086,6.013H7.939a13.115,13.115,0,0,1,4.148-4.288Zm-1.959-4.44a14.267,14.267,0,0,0-3.639,4.44H3.435A11.622,11.622,0,0,1,10.127,1.573Zm1.959,5.734v4.745H6.132A12.735,12.735,0,0,1,7.277,7.307Zm0,6.013v4.745H7.277A12.735,12.735,0,0,1,6.132,13.32Zm0,6.038v4.288a13.366,13.366,0,0,1-4.148-4.288Zm1.272,0h4.148a13.115,13.115,0,0,1-4.148,4.288Zm1.959,4.44a14.267,14.267,0,0,0,3.639-4.44H22.01A11.622,11.622,0,0,1,15.318,23.8Zm-1.959-5.734V13.32h5.954a12.735,12.735,0,0,1-1.145,4.745Zm0-6.013V7.307h4.809a12.735,12.735,0,0,1,1.145,4.745Zm5.725-8.829c.305.2.611.431.891.66A11.706,11.706,0,0,1,22.01,6.038H18.956a14.079,14.079,0,0,0-3.639-4.465,11.513,11.513,0,0,1,3.461,1.446A2.123,2.123,0,0,1,19.084,3.222ZM2.621,7.307H5.878a14.428,14.428,0,0,0-1.043,4.745H1.3A11.707,11.707,0,0,1,2.621,7.307ZM1.3,13.32H4.835a13.685,13.685,0,0,0,1.043,4.745H2.621a10.856,10.856,0,0,1-1.043-2.791c-.025-.076-.025-.152-.051-.254-.025-.076-.025-.152-.051-.228A12.3,12.3,0,0,1,1.3,13.4S1.3,13.346,1.3,13.32Zm5.674,9.235a11.878,11.878,0,0,1-3.562-3.2H6.463a14.711,14.711,0,0,0,3.664,4.44A14.024,14.024,0,0,1,8.3,23.215c-.229-.1-.458-.2-.662-.3C7.4,22.784,7.2,22.682,6.972,22.555Zm15.852-4.491H19.567A14.428,14.428,0,0,0,20.61,13.32h3.562A12.152,12.152,0,0,1,22.824,18.065Z"/></svg>