<svg xmlns="http://www.w3.org/2000/svg" viewBox="0 0 32 32"><defs><style>.a{fill:#e60000;}.b{fill:#fff;}</style></defs><g transform="translate(-156 -12)"><rect class="a" width="32" height="32" rx="16" transform="translate(156 12)"/><path class="b" d="M21.5,5.744c-.069-.115-.115-.207-.184-.322a11.411,11.411,0,0,0-3-3.217c-.3-.207-.6-.414-.922-.62-.115-.069-.23-.138-.323-.184A11.808,11.808,0,0,0,11.568,0h-.115A11.223,11.223,0,0,0,5.646,1.608a11.582,11.582,0,0,0-4.1,4.136,11.458,11.458,0,0,0,0,11.489l.161.3h0A11.605,11.605,0,0,0,4.77,20.817c.277.207.576.391.876.574.23.138.438.253.668.368A11.679,11.679,0,0,0,11.453,23h.092a11.335,11.335,0,0,0,3.387-.528,10.378,10.378,0,0,0,2.42-1.08A12.682,12.682,0,0,0,18.5,20.61a11.491,11.491,0,0,0,2.788-3.079h0l.161-.3c.069-.115.115-.207.184-.322a11.679,11.679,0,0,0,1.313-4.274A9.2,9.2,0,0,0,23,11.511,10.955,10.955,0,0,0,21.5,5.744Zm.369,5.17H18.642a12.393,12.393,0,0,0-.945-4.3h2.95A10.277,10.277,0,0,1,21.868,10.914ZM12.1,1.562a12.349,12.349,0,0,1,3.756,3.883H12.1ZM10.946,5.446H7.19a11.877,11.877,0,0,1,3.756-3.883ZM9.171,1.425a12.92,12.92,0,0,0-3.3,4.021H3.111A10.525,10.525,0,0,1,9.171,1.425Zm1.774,5.193v4.3H5.553a11.533,11.533,0,0,1,1.037-4.3Zm0,5.446v4.3H6.59a11.533,11.533,0,0,1-1.037-4.3Zm0,5.469v3.883A12.1,12.1,0,0,1,7.19,17.531Zm1.152,0h3.756A11.877,11.877,0,0,1,12.1,21.415Zm1.774,4.021a12.92,12.92,0,0,0,3.3-4.021h2.765A10.525,10.525,0,0,1,13.872,21.552ZM12.1,16.36v-4.3H17.49a11.533,11.533,0,0,1-1.037,4.3Zm0-5.446v-4.3h4.355a11.533,11.533,0,0,1,1.037,4.3Zm5.185-8c.277.184.553.391.807.6a10.6,10.6,0,0,1,1.843,1.953H17.167a12.75,12.75,0,0,0-3.3-4.044,10.426,10.426,0,0,1,3.134,1.31A1.922,1.922,0,0,1,17.282,2.918ZM2.373,6.617h2.95a13.066,13.066,0,0,0-.945,4.3h-3.2A10.6,10.6,0,0,1,2.373,6.617Zm-1.2,5.446h3.2a12.393,12.393,0,0,0,.945,4.3H2.373a9.831,9.831,0,0,1-.945-2.527c-.023-.069-.023-.138-.046-.23-.023-.069-.023-.138-.046-.207a11.134,11.134,0,0,1-.161-1.264S1.175,12.086,1.175,12.063Zm5.139,8.364a10.757,10.757,0,0,1-3.226-2.9H5.853a13.323,13.323,0,0,0,3.318,4.021,12.7,12.7,0,0,1-1.659-.528c-.207-.092-.415-.184-.6-.276C6.706,20.633,6.521,20.541,6.314,20.427ZM20.67,16.36H17.72a13.066,13.066,0,0,0,.945-4.3h3.226A11.005,11.005,0,0,1,20.67,16.36Z" transform="translate(160 17)"/></g></svg>