<svg xmlns="http://www.w3.org/2000/svg" viewBox="0 0 22 22">
  <defs>
    <style>
      .cls-1 {
        fill: #fff;
        fill-rule: evenodd;
      }
    </style>
  </defs>
  <path id="ic_search_white" class="cls-1" d="M18.726-6.655h-1L17.38-7a8.137,8.137,0,0,0,1.972-5.315,8.176,8.176,0,0,0-8.176-8.176A8.176,8.176,0,0,0,3-12.315,8.176,8.176,0,0,0,11.176-4.14a8.139,8.139,0,0,0,5.314-1.97l.347.345v1l6.287,6.278L25-.366,18.726-6.655Zm-7.55,0a5.659,5.659,0,0,1-5.66-5.66,5.66,5.66,0,0,1,5.66-5.66,5.661,5.661,0,0,1,5.66,5.66,5.66,5.66,0,0,1-5.66,5.66Z" transform="translate(-3 20.491)"/>
</svg>
