<svg xmlns="http://www.w3.org/2000/svg" viewBox="0 0 180.933 26"><path d="M180.249,2.108A4.646,4.646,0,0,0,176.3,0H73.438a7.653,7.653,0,0,0-5.885,3.162c-1.23,1.932-2.2,3.6-3.074,5.095-2.02,3.426-3.338,5.8-5.27,7.466A5.816,5.816,0,0,1,54.2,17.216a4.325,4.325,0,0,1-1.493-.527c2.723-3.162,5.622-6.588,6.939-7.818a1.684,1.684,0,0,0,.527-1.493A1.884,1.884,0,0,0,59.3,5.973a6.978,6.978,0,0,0-8.432.176C47.175,8.959,47.526,13,49.107,15.723a6.235,6.235,0,0,0,.878,1.23C48.4,18.8,47,20.378,46.209,21.345a4.221,4.221,0,0,1-.791.878,2.673,2.673,0,0,0-.7.7c-.791.791-1.318,1.23-2.02,1.23H4.661a2.8,2.8,0,0,1-2.372-1.23,2.579,2.579,0,0,1-.176-2.635c0-.088.088-.088.088-.176l5.534-16.6V3.426A2.625,2.625,0,0,1,10.2,1.932H39.533A2.684,2.684,0,0,1,41.9,3.25a2.592,2.592,0,0,1,.176,2.635.923.923,0,0,0,1.669.791,4.753,4.753,0,0,0-.264-4.48A4.529,4.529,0,0,0,39.533,0H10.283A4.581,4.581,0,0,0,6.155,2.547c-.088.088-.088.176-.176.351L.445,19.412A4.8,4.8,0,0,0,.8,23.892,4.646,4.646,0,0,0,4.749,26H42.871a4.312,4.312,0,0,0,3.25-1.757,4.4,4.4,0,0,1,.7-.615c.088-.088.088-.088.966-1.054.791-.966,2.2-2.547,3.777-4.48a7.576,7.576,0,0,0,2.459.966,7.876,7.876,0,0,0,6.588-1.932c2.2-1.845,3.514-4.3,5.622-7.905.878-1.493,1.845-3.162,2.986-5.007a5.559,5.559,0,0,1,4.3-2.284H176.472a2.8,2.8,0,0,1,2.372,1.23,2.579,2.579,0,0,1,.176,2.635c0,.088-.088.088-.088.176L173.4,22.486v.088a2.625,2.625,0,0,1-2.459,1.493H73a2.684,2.684,0,0,1-2.372-1.318,2.592,2.592,0,0,1-.176-2.635.923.923,0,1,0-1.669-.791,4.753,4.753,0,0,0,.264,4.48A4.845,4.845,0,0,0,73,26h97.764a4.581,4.581,0,0,0,4.128-2.547.323.323,0,0,0,.088-.264l5.534-16.6A4.523,4.523,0,0,0,180.249,2.108ZM51.3,15.459a1.912,1.912,0,0,1-.439-.7c-.7-1.318-2.108-4.655,1.23-7.2a5.147,5.147,0,0,1,3.074-1.142A6.167,6.167,0,0,1,58.33,7.466C57.013,8.784,54.026,12.209,51.3,15.459Z" transform="translate(-0.049)"/><path d="M14.232,11.954a1.074,1.074,0,0,0-.264-.791,1.069,1.069,0,0,0-1.405,0,1.166,1.166,0,0,0-.264.878v3.689a4.32,4.32,0,0,0,1.405,3.338,5.03,5.03,0,0,0,3.338,1.405h.176a5.03,5.03,0,0,0,3.338-1.405,4.45,4.45,0,0,0,1.405-3.338V12.042a1.484,1.484,0,0,0-.264-.878,1.069,1.069,0,0,0-1.405,0,1.074,1.074,0,0,0-.264.791v3.865a2.928,2.928,0,0,1-.791,1.845,2.859,2.859,0,0,1-2.02.878h0a2.544,2.544,0,0,1-2.02-.878,2.528,2.528,0,0,1-.791-1.845V11.954Z" transform="translate(-1.539 -1.326)"/><path d="M16.778,10.026h.264a.671.671,0,0,0,.439-.176l2.547-1.493a1.016,1.016,0,0,0,.439-.615V7.478a.671.671,0,0,0-.176-.439,1.016,1.016,0,0,0-.615-.439h-.264a1.248,1.248,0,0,0-.527.176L16.339,8.269a1.017,1.017,0,0,0-.439.615v.264a.671.671,0,0,0,.176.439A1.912,1.912,0,0,0,16.778,10.026Z" transform="translate(-1.977 -0.803)"/><path d="M27.672,19.809a.967.967,0,0,0,1.669-.7V12.431h1.054a.967.967,0,1,0,0-1.932H29.341V8.566a.967.967,0,1,0-1.932,0v1.845H26.266a.967.967,0,1,0,0,1.932h1.142v6.676A1.074,1.074,0,0,0,27.672,19.809Z" transform="translate(-3.12 -0.924)"/><path d="M35.969,7.864a1.069,1.069,0,1,0,.264.7A1,1,0,0,0,35.969,7.864Z" transform="translate(-4.214 -0.924)"/><path d="M35.266,10.8a.907.907,0,0,0-.966.966V19.5a.967.967,0,1,0,1.932,0v-7.73a.907.907,0,0,0-.966-.966Z" transform="translate(-4.214 -1.314)"/><path d="M38.964,7.959a1,1,0,0,0-.264.7V19.2a.967.967,0,1,0,1.932,0V8.662a.907.907,0,0,0-.966-.966A.589.589,0,0,0,38.964,7.959Z" transform="translate(-4.75 -0.932)"/><path d="M87.1,19.5a.967.967,0,1,0,1.932,0v-7.73a.967.967,0,1,0-1.932,0Z" transform="translate(-10.636 -1.314)"/><path d="M88.066,9.532a.907.907,0,1,0-.7-.264A1,1,0,0,0,88.066,9.532Z" transform="translate(-10.636 -0.924)"/><path d="M99.13,19.42a1.074,1.074,0,0,0,.264.791,1.069,1.069,0,0,0,1.405,0,1.166,1.166,0,0,0,.264-.878V15.643a4.32,4.32,0,0,0-1.405-3.338A5.03,5.03,0,0,0,96.319,10.9h-.176a5.03,5.03,0,0,0-3.338,1.405A4.45,4.45,0,0,0,91.4,15.643v3.689a1.484,1.484,0,0,0,.264.878,1.069,1.069,0,0,0,1.405,0,1.074,1.074,0,0,0,.264-.791V15.555a2.928,2.928,0,0,1,.791-1.845,2.859,2.859,0,0,1,2.02-.878h0a2.544,2.544,0,0,1,2.02.878,2.528,2.528,0,0,1,.791,1.845V19.42Z" transform="translate(-11.159 -1.326)"/><path d="M106.777,7.964a.967.967,0,0,0-1.669.7v1.845h-1.142a.967.967,0,1,0,0,1.932h1.142v6.676a.967.967,0,1,0,1.932,0V12.443h1.054a.967.967,0,1,0,0-1.932h-1.054V8.578A.8.8,0,0,0,106.777,7.964Z" transform="translate(-12.57 -0.936)"/><path d="M115.231,10.9a4.8,4.8,0,0,0-4.831,4.831,4.845,4.845,0,0,0,8.257,3.426h0a.995.995,0,0,0-1.405-1.405h0a2.783,2.783,0,0,1-2.02.791,2.544,2.544,0,0,1-2.02-.878,2.859,2.859,0,0,1-.878-2.02,2.544,2.544,0,0,1,.878-2.02,2.859,2.859,0,0,1,2.02-.878,2.431,2.431,0,0,1,1.142.264l-1.932,1.932a.995.995,0,0,0,1.405,1.405l2.723-2.723a1.069,1.069,0,0,0,0-1.405h0A4.57,4.57,0,0,0,115.231,10.9Z" transform="translate(-13.47 -1.326)"/><path d="M127.231,12.832h0a.967.967,0,1,0,0-1.932,5.075,5.075,0,0,0-3.426,1.405,4.45,4.45,0,0,0-1.405,3.338v3.689a1.484,1.484,0,0,0,.264.878,1.069,1.069,0,0,0,1.405,0,1.074,1.074,0,0,0,.264-.791V15.555a2.928,2.928,0,0,1,.791-1.845A3,3,0,0,1,127.231,12.832Z" transform="translate(-14.929 -1.326)"/><path d="M134.331,10.9a4.8,4.8,0,0,0-4.831,4.831,4.845,4.845,0,0,0,8.257,3.426h0a.995.995,0,0,0-1.405-1.405h0a2.783,2.783,0,0,1-2.02.791,2.544,2.544,0,0,1-2.02-.878,2.859,2.859,0,0,1-.878-2.02,2.544,2.544,0,0,1,.878-2.02,2.859,2.859,0,0,1,2.02-.878,2.431,2.431,0,0,1,1.142.264l-1.932,1.932a.995.995,0,0,0,1.405,1.405l2.723-2.723a1.069,1.069,0,0,0,0-1.405h0A4.57,4.57,0,0,0,134.331,10.9Z" transform="translate(-15.793 -1.326)"/><path d="M144.926,18.518a1.621,1.621,0,0,1-1.054-.439,1.455,1.455,0,0,1-.439-1.054.967.967,0,1,0-1.932,0,3.244,3.244,0,0,0,.966,2.372,3.181,3.181,0,0,0,2.372.966,3.394,3.394,0,0,0,2.372-.966,3.181,3.181,0,0,0,.966-2.372,3.244,3.244,0,0,0-.966-2.372,3.181,3.181,0,0,0-2.372-.966.5.5,0,0,1-.351-.878.456.456,0,0,1,.351-.176.967.967,0,1,0,0-1.932,2.249,2.249,0,0,0-1.669.7,2.4,2.4,0,0,0-.7,1.669,2.249,2.249,0,0,0,.7,1.669,2.4,2.4,0,0,0,1.669.7,1.621,1.621,0,0,1,1.054.439,1.455,1.455,0,0,1,.439,1.054,1.62,1.62,0,0,1-.439,1.054A1.018,1.018,0,0,1,144.926,18.518Z" transform="translate(-17.252 -1.301)"/><path d="M159.03,19.584c0,.351.088.615.264.7a1.493,1.493,0,0,0,1.405,0q.263-.132.263-.791V15.543a4.32,4.32,0,0,0-1.405-3.338,4.831,4.831,0,0,0-8.257,3.426,4.8,4.8,0,0,0,4.831,4.831A4.553,4.553,0,0,0,159.03,19.584Zm-5.622-3.953a2.544,2.544,0,0,1,.878-2.02,2.859,2.859,0,0,1,2.02-.878,2.544,2.544,0,0,1,2.02.878,2.528,2.528,0,0,1,.79,1.845v.527a2.968,2.968,0,0,1-.79,1.669,2.859,2.859,0,0,1-2.02.878,2.544,2.544,0,0,1-2.02-.878A2.544,2.544,0,0,1,153.408,15.631Z" transform="translate(-18.444 -1.314)"/><path d="M172.33,19.42a1.073,1.073,0,0,0,.264.791,1.069,1.069,0,0,0,1.405,0,1.166,1.166,0,0,0,.264-.878V15.643a4.32,4.32,0,0,0-1.405-3.338,5.03,5.03,0,0,0-3.338-1.405h-.176a5.03,5.03,0,0,0-3.338,1.405,4.45,4.45,0,0,0-1.405,3.338v3.689a1.484,1.484,0,0,0,.264.878,1.069,1.069,0,0,0,1.405,0,1.074,1.074,0,0,0,.263-.791V15.555a2.928,2.928,0,0,1,.791-1.845,2.859,2.859,0,0,1,2.02-.878h0a2.544,2.544,0,0,1,2.02.878,2.528,2.528,0,0,1,.791,1.845V19.42Z" transform="translate(-20.062 -1.326)"/><path d="M179.977,7.964a.967.967,0,0,0-1.669.7v1.845h-1.142a.967.967,0,1,0,0,1.932h1.142v6.676a.967.967,0,1,0,1.932,0V12.443h1.054a.967.967,0,1,0,0-1.932H180.24V8.578A.8.8,0,0,0,179.977,7.964Z" transform="translate(-21.472 -0.936)"/><path d="M188.331,10.9a4.8,4.8,0,0,0-4.831,4.831,4.845,4.845,0,0,0,8.257,3.426h0a.995.995,0,0,0-1.405-1.405h0a2.783,2.783,0,0,1-2.02.791,2.544,2.544,0,0,1-2.02-.878,2.859,2.859,0,0,1-.878-2.02,2.544,2.544,0,0,1,.878-2.02,2.859,2.859,0,0,1,2.02-.878,2.431,2.431,0,0,1,1.142.264l-1.932,1.932a.995.995,0,0,0,1.405,1.405l2.723-2.723a1.069,1.069,0,0,0,0-1.405h0A4.432,4.432,0,0,0,188.331,10.9Z" transform="translate(-22.36 -1.326)"/></svg>