<svg xmlns="http://www.w3.org/2000/svg" viewBox="0 0 184.888 25.575"><defs><style>.a{fill:#fff;}</style></defs><g transform="translate(-0.049)"><path class="a" d="M184.217,2.074A4.57,4.57,0,0,0,180.329,0H75.7a7.528,7.528,0,0,0-5.789,3.11c-1.21,1.9-2.16,3.543-3.024,5.011-1.987,3.37-3.283,5.7-5.184,7.344a5.721,5.721,0,0,1-4.925,1.469,4.254,4.254,0,0,1-1.469-.518c2.678-3.11,5.53-6.48,6.826-7.69a1.657,1.657,0,0,0,.518-1.469,1.853,1.853,0,0,0-.864-1.382,6.864,6.864,0,0,0-8.295.173c-3.629,2.765-3.283,6.739-1.728,9.418a6.134,6.134,0,0,0,.864,1.21C51.07,18.49,49.688,20.045,48.91,21a4.152,4.152,0,0,1-.778.864,2.63,2.63,0,0,0-.691.691c-.778.778-1.3,1.21-1.987,1.21H4.586a2.755,2.755,0,0,1-2.333-1.21,2.537,2.537,0,0,1-.173-2.592c0-.086.086-.086.086-.173L7.61,3.456V3.37A2.582,2.582,0,0,1,10.029,1.9H42.344a2.641,2.641,0,0,1,2.333,1.3,2.549,2.549,0,0,1,.173,2.592.908.908,0,0,0,1.642.778,4.675,4.675,0,0,0-.259-4.407A4.455,4.455,0,0,0,42.344,0H10.116A4.506,4.506,0,0,0,6.055,2.506c-.086.086-.086.173-.173.346L.439,19.095A4.72,4.72,0,0,0,.784,23.5a4.57,4.57,0,0,0,3.888,2.074H45.627a4.241,4.241,0,0,0,3.2-1.728,4.328,4.328,0,0,1,.691-.6c.086-.086.086-.086.95-1.037.778-.95,2.16-2.506,3.715-4.407a7.452,7.452,0,0,0,2.419.95,7.747,7.747,0,0,0,6.48-1.9c2.16-1.814,3.456-4.234,5.53-7.776.864-1.469,1.814-3.11,2.938-4.925A5.468,5.468,0,0,1,75.782,1.9H180.5a2.755,2.755,0,0,1,2.333,1.21,2.537,2.537,0,0,1,.173,2.592c0,.086-.086.086-.086.173l-5.443,16.244v.086a2.582,2.582,0,0,1-2.419,1.469H75.263a2.64,2.64,0,0,1-2.333-1.3,2.549,2.549,0,0,1-.173-2.592.908.908,0,0,0-1.642-.778,4.675,4.675,0,0,0,.259,4.407,4.765,4.765,0,0,0,3.888,2.16h99.622a4.506,4.506,0,0,0,4.061-2.506.317.317,0,0,0,.086-.259l5.443-16.33A4.448,4.448,0,0,0,184.217,2.074ZM53.922,15.207a1.881,1.881,0,0,1-.432-.691c-.691-1.3-2.074-4.579,1.21-7.085a5.063,5.063,0,0,1,3.024-1.123,6.066,6.066,0,0,1,3.11,1.037C59.538,8.64,56.6,12.01,53.922,15.207Z" transform="translate(0)"/><path class="a" d="M16.2,11.937a1.056,1.056,0,0,0-.259-.778,1.051,1.051,0,0,0-1.382,0,1.147,1.147,0,0,0-.259.864v3.629a4.249,4.249,0,0,0,1.382,3.283,4.948,4.948,0,0,0,3.283,1.382h.173a4.948,4.948,0,0,0,3.283-1.382A4.377,4.377,0,0,0,23.8,15.652V12.023a1.46,1.46,0,0,0-.259-.864,1.051,1.051,0,0,0-1.382,0,1.056,1.056,0,0,0-.259.778v3.8a2.88,2.88,0,0,1-.778,1.814,2.813,2.813,0,0,1-1.987.864h0a2.5,2.5,0,0,1-1.987-.864,2.487,2.487,0,0,1-.778-1.814v-3.8Z" transform="translate(-1.938 -1.482)"/><path class="a" d="M18.764,9.97h.259a.66.66,0,0,0,.432-.173l2.506-1.469a1,1,0,0,0,.432-.6V7.464a.66.66,0,0,0-.173-.432,1,1,0,0,0-.6-.432h-.259a1.228,1.228,0,0,0-.518.173L18.332,8.242a1,1,0,0,0-.432.6v.259a.66.66,0,0,0,.173.432A1.881,1.881,0,0,0,18.764,9.97Z" transform="translate(-2.427 -0.897)"/><path class="a" d="M29.633,19.61a.951.951,0,0,0,1.642-.691V12.352h1.037a.951.951,0,1,0,0-1.9H31.275V8.55a.951.951,0,1,0-1.9,0v1.814H28.25a.951.951,0,1,0,0,1.9h1.123v6.567A1.056,1.056,0,0,0,29.633,19.61Z" transform="translate(-3.705 -1.033)"/><path class="a" d="M37.942,7.859a1.051,1.051,0,1,0,.259.691A.981.981,0,0,0,37.942,7.859Z" transform="translate(-4.929 -1.033)"/><path class="a" d="M37.25,10.8a.892.892,0,0,0-.95.95v7.6a.951.951,0,1,0,1.9,0v-7.6a.892.892,0,0,0-.95-.95Z" transform="translate(-4.929 -1.469)"/><path class="a" d="M40.959,7.954a.981.981,0,0,0-.259.691V19.014a.951.951,0,1,0,1.9,0V8.645a.892.892,0,0,0-.95-.95A.579.579,0,0,0,40.959,7.954Z" transform="translate(-5.528 -1.042)"/><path class="a" d="M93.1,19.354a.951.951,0,1,0,1.9,0v-7.6a.951.951,0,1,0-1.9,0Z" transform="translate(-12.653 -1.469)"/><path class="a" d="M94.05,9.5a.892.892,0,1,0-.691-.259A.981.981,0,0,0,94.05,9.5Z" transform="translate(-12.653 -1.033)"/><path class="a" d="M105,19.281a1.056,1.056,0,0,0,.259.778,1.051,1.051,0,0,0,1.382,0,1.147,1.147,0,0,0,.259-.864V15.566a4.249,4.249,0,0,0-1.382-3.283,4.948,4.948,0,0,0-3.283-1.382h-.173a4.948,4.948,0,0,0-3.283,1.382A4.377,4.377,0,0,0,97.4,15.566v3.629a1.46,1.46,0,0,0,.259.864,1.051,1.051,0,0,0,1.382,0,1.056,1.056,0,0,0,.259-.778v-3.8a2.88,2.88,0,0,1,.778-1.814,2.813,2.813,0,0,1,1.987-.864h0a2.5,2.5,0,0,1,1.987.864,2.487,2.487,0,0,1,.778,1.814v3.8Z" transform="translate(-13.237 -1.482)"/><path class="a" d="M112.715,7.959a.951.951,0,0,0-1.642.691v1.814H109.95a.951.951,0,1,0,0,1.9h1.123v6.567a.951.951,0,1,0,1.9,0V12.366h1.037a.951.951,0,1,0,0-1.9h-1.037v-1.9A.784.784,0,0,0,112.715,7.959Z" transform="translate(-14.815 -1.047)"/><path class="a" d="M121.152,10.9a4.72,4.72,0,0,0-4.752,4.752,4.766,4.766,0,0,0,8.122,3.37h0a.978.978,0,0,0-1.382-1.382h0a2.737,2.737,0,0,1-1.987.778,2.5,2.5,0,0,1-1.987-.864,2.813,2.813,0,0,1-.864-1.987,2.5,2.5,0,0,1,.864-1.987,2.813,2.813,0,0,1,1.987-.864,2.392,2.392,0,0,1,1.123.259l-1.9,1.9a.978.978,0,0,0,1.382,1.382l2.678-2.678a1.051,1.051,0,0,0,0-1.382h0A4.5,4.5,0,0,0,121.152,10.9Z" transform="translate(-15.821 -1.482)"/><path class="a" d="M133.152,12.8h0a.951.951,0,1,0,0-1.9,4.992,4.992,0,0,0-3.37,1.382,4.377,4.377,0,0,0-1.382,3.283v3.629a1.46,1.46,0,0,0,.259.864,1.051,1.051,0,0,0,1.382,0,1.056,1.056,0,0,0,.259-.778v-3.8a2.88,2.88,0,0,1,.778-1.814A2.948,2.948,0,0,1,133.152,12.8Z" transform="translate(-17.453 -1.482)"/><path class="a" d="M140.252,10.9a4.72,4.72,0,0,0-4.752,4.752,4.766,4.766,0,0,0,8.122,3.37h0a.978.978,0,0,0-1.382-1.382h0a2.737,2.737,0,0,1-1.987.778,2.5,2.5,0,0,1-1.987-.864,2.813,2.813,0,0,1-.864-1.987,2.5,2.5,0,0,1,.864-1.987,2.813,2.813,0,0,1,1.987-.864,2.392,2.392,0,0,1,1.123.259l-1.9,1.9a.978.978,0,0,0,1.382,1.382l2.678-2.678a1.051,1.051,0,0,0,0-1.382h0A4.5,4.5,0,0,0,140.252,10.9Z" transform="translate(-18.418 -1.482)"/><path class="a" d="M150.87,18.39a1.594,1.594,0,0,1-1.037-.432,1.431,1.431,0,0,1-.432-1.037.951.951,0,1,0-1.9,0,3.191,3.191,0,0,0,.95,2.333,3.129,3.129,0,0,0,2.333.95,3.338,3.338,0,0,0,2.333-.95,3.129,3.129,0,0,0,.95-2.333,3.191,3.191,0,0,0-.95-2.333,3.129,3.129,0,0,0-2.333-.95.49.49,0,0,1-.346-.864.449.449,0,0,1,.346-.173.951.951,0,1,0,0-1.9,2.212,2.212,0,0,0-1.642.691,2.361,2.361,0,0,0-.691,1.642,2.212,2.212,0,0,0,.691,1.642,2.361,2.361,0,0,0,1.642.691,1.594,1.594,0,0,1,1.037.432,1.431,1.431,0,0,1,.432,1.037,1.594,1.594,0,0,1-.432,1.037A1,1,0,0,1,150.87,18.39Z" transform="translate(-20.05 -1.455)"/><path class="a" d="M164.9,19.44c0,.346.086.6.259.691a1.469,1.469,0,0,0,1.382,0q.259-.13.259-.778V15.466a4.249,4.249,0,0,0-1.382-3.283,4.752,4.752,0,0,0-8.122,3.37,4.72,4.72,0,0,0,4.752,4.752A4.478,4.478,0,0,0,164.9,19.44Zm-5.53-3.888a2.5,2.5,0,0,1,.864-1.987,2.813,2.813,0,0,1,1.987-.864,2.5,2.5,0,0,1,1.987.864,2.487,2.487,0,0,1,.778,1.814V15.9a2.92,2.92,0,0,1-.778,1.642,2.813,2.813,0,0,1-1.987.864,2.5,2.5,0,0,1-1.987-.864A2.5,2.5,0,0,1,159.374,15.552Z" transform="translate(-21.382 -1.469)"/><path class="a" d="M178.2,19.281a1.056,1.056,0,0,0,.259.778,1.051,1.051,0,0,0,1.382,0,1.147,1.147,0,0,0,.259-.864V15.566a4.249,4.249,0,0,0-1.382-3.283,4.948,4.948,0,0,0-3.283-1.382h-.173a4.948,4.948,0,0,0-3.283,1.382,4.377,4.377,0,0,0-1.382,3.283v3.629a1.46,1.46,0,0,0,.259.864,1.051,1.051,0,0,0,1.382,0,1.056,1.056,0,0,0,.259-.778v-3.8a2.88,2.88,0,0,1,.778-1.814,2.813,2.813,0,0,1,1.987-.864h0a2.5,2.5,0,0,1,1.987.864,2.487,2.487,0,0,1,.778,1.814v3.8Z" transform="translate(-23.191 -1.482)"/><path class="a" d="M185.915,7.959a.951.951,0,0,0-1.642.691v1.814H183.15a.951.951,0,1,0,0,1.9h1.123v6.567a.951.951,0,1,0,1.9,0V12.366h1.037a.951.951,0,1,0,0-1.9h-1.037v-1.9A.784.784,0,0,0,185.915,7.959Z" transform="translate(-24.768 -1.047)"/><path class="a" d="M194.252,10.9a4.72,4.72,0,0,0-4.752,4.752,4.766,4.766,0,0,0,8.122,3.37h0a.978.978,0,0,0-1.382-1.382h0a2.737,2.737,0,0,1-1.987.778,2.5,2.5,0,0,1-1.987-.864,2.813,2.813,0,0,1-.864-1.987,2.5,2.5,0,0,1,.864-1.987,2.813,2.813,0,0,1,1.987-.864,2.392,2.392,0,0,1,1.123.259l-1.9,1.9a.978.978,0,0,0,1.382,1.382l2.679-2.678a1.051,1.051,0,0,0,0-1.382h0A4.36,4.36,0,0,0,194.252,10.9Z" transform="translate(-25.761 -1.482)"/></g></svg>